# xmcd
#
# Track frame offsets:
#	150
#	13209
#	26575
#	40190
#	53129
#	66703
#	80112
#	92117
#	103616
#	116508
#	128213
#	140016
#	152943
#	162984
#
# Disc length: 2325 seconds
#
# Revision: 0
# Processed by: cddbd v1.5.2PL0 Copyright (c) Steve Scherf et al.
# Submitted via: EasyCDDAExtractor 10.0.3.1
#
DISCID=c909130e
DTITLE=Robert Johnson - Me And The Devil Blues
DYEAR=2004
DGENRE=Blues
TTITLE0=32-20 Blues
TTITLE1=I Believe I'll Dust My Broom
TTITLE2=Sweet Home Chicago
TTITLE3=Ramblin On My Mind
TTITLE4=Terraplane Blues
TTITLE5=They're Red Hot
TTITLE6=Phonograph Blues
TTITLE7=Walkin Blues
TTITLE8=Preachin Blues
TTITLE9=If I Had Possession Over Judgement Day
TTITLE10=I'm A Steady Rollin Man
TTITLE11=Kind Hearted Woman Blues
TTITLE12=Little Queen Of Spades
TTITLE13=Me And The Devil Blues
EXTD=
EXTT0=
EXTT1=
EXTT2=
EXTT3=
EXTT4=
EXTT5=
EXTT6=
EXTT7=
EXTT8=
EXTT9=
EXTT10=
EXTT11=
EXTT12=
EXTT13=
PLAYORDER=
